<svg width="315" height="315" viewBox="0 0 315 315" fill="none" xmlns="http://www.w3.org/2000/svg">
<circle cx="157.5" cy="157.5" r="134.5" fill="#232528"/>
<circle cx="157.5" cy="157.5" r="132" stroke="#9A9FA5" stroke-width="5"/>
<path d="M151.343 53.4893C153.438 47.0402 162.562 47.0402 164.657 53.4894L184.493 114.536C185.43 117.42 188.117 119.373 191.15 119.373H255.338C262.119 119.373 264.939 128.05 259.453 132.036L207.523 169.765C205.07 171.547 204.043 174.707 204.981 177.591L224.816 238.638C226.911 245.087 219.53 250.45 214.044 246.464L162.114 208.735C159.661 206.953 156.339 206.953 153.886 208.735L101.956 246.464C96.4701 250.45 89.0888 245.087 91.1842 238.638L111.019 177.591C111.957 174.707 110.93 171.547 108.477 169.765L56.5472 132.036C51.0612 128.05 53.8807 119.373 60.6617 119.373H124.85C127.883 119.373 130.57 117.42 131.507 114.536L151.343 53.4893Z" fill="#EFE8BD"/>
<path d="M158 57L180.676 126.789H254.057L194.69 169.921L217.366 239.711L158 196.579L98.6337 239.711L121.31 169.921L61.9433 126.789H135.324L158 57Z" fill="#C69A27"/>
</svg>
